<svg xmlns="http://www.w3.org/2000/svg" id="Layer_1" viewBox="0 0 24 24"><g><circle cx="12" cy="12" fill="#ffd54f" r="10"></circle><circle cx="12" cy="12" fill="#f0a62d" r="8"></circle><circle cx="12" cy="12" fill="#fec107" r="7.5"></circle></g><g fill="#f0a62d"><path d="m6.835 11.254h1.889v1.901h-1.889z" transform="matrix(.707 -.707 .707 .707 -6.351 9.076)"></path><path d="m11.295 11.295h1.81v1.81h-1.81z" transform="matrix(.707 -.707 .707 .707 -5.053 12.2)"></path><path d="m14.38403 13.104 1.33599 1.33599-3.52002 3.52002-2.23999-2.23999-1.27998-1.28003 1.33599-1.33599h.008l1.27198 1.27998h.008l.896.896.904-.896z"></path><path d="m10.02402 11.304-1.34399-1.34399 1.27998-1.28003 2.23999-2.23999 3.52002 3.52002-1.33599 1.33599v.008l-1.28003-1.27998-.904-.904-.896.904z"></path><path d="m15.676 11.254h1.892v1.892h-1.892z" transform="matrix(.707 -.707 .707 .707 -3.758 15.327)"></path></g><g fill="#fff"><path d="m6.635 11.054h1.889v1.901h-1.889z" transform="matrix(.707 -.707 .707 .707 -6.268 8.876)"></path><path d="m11.095 11.095h1.81v1.81h-1.81z" transform="matrix(.707 -.707 .707 .707 -4.971 12)"></path><path d="m14.18403 12.904 1.33599 1.33599-3.52002 3.52002-2.23999-2.23999-1.27998-1.28003 1.33599-1.33599h.008l1.27198 1.27998h.008l.896.896.904-.896z"></path><path d="m9.82402 11.104-1.34399-1.34399 1.27998-1.28003 2.23999-2.23999 3.52002 3.52002-1.33599 1.33599v.008l-1.28003-1.27998-.904-.904-.896.904z"></path><path d="m15.476 11.054h1.892v1.892h-1.892z" transform="matrix(.707 -.707 .707 .707 -3.675 15.127)"></path></g></svg>