<svg xmlns:xodm="http://www.corel.com/coreldraw/odm/2003" xmlns="http://www.w3.org/2000/svg" xmlns:xlink="http://www.w3.org/1999/xlink" id="Layer_1" x="0px" y="0px" viewBox="0 0 2500 2500" style="enable-background:new 0 0 2500 2500;" xml:space="preserve"><style type="text/css">	.st0{fill:none;}	.st1{fill-rule:evenodd;clip-rule:evenodd;fill:#F4BF7F;}</style><g id="Layer_x0020_1">	<rect y="0" class="st0" width="2500" height="2500"></rect>	<rect y="0" class="st0" width="2500" height="2500"></rect>	<rect y="0" class="st0" width="2500" height="2500"></rect>	<g id="_1941227788096">		<path class="st1" d="M0,1345.3c0-424.1,337.6-768,754-768v1156.1h209.7v-388.1h577c0,419.4-350.9,760.2-786.8,767.8    c0,0.4-6.4,0.1-7.2,0.1C330.8,2118.6,0,1750.3,0,1345.3L0,1345.3z"></path>		<path class="st1" d="M2500,1154.7c0,424.2-337.6,768-754,768V766.6h-209.7v388.1h-577c0-419.4,350.9-760.2,786.8-767.8    c0-0.4,6.4-0.1,7.2-0.1C2169.2,381.4,2500,749.7,2500,1154.7z"></path>	</g></g></svg>