<svg xmlns="http://www.w3.org/2000/svg" width="134" height="40" viewBox="0 0 134 40" fill="none"><path d="M36.0758 9.01728C30.7751 8.96679 26.4336 13.3588 26.4336 18.6595V29.5133C26.4336 29.8667 26.7365 30.1696 27.0899 30.1696H31.179C31.5324 30.1696 31.8353 29.8667 31.8353 29.5133V18.6595C31.8353 16.3878 33.6526 14.5199 35.9244 14.5199C38.1961 14.5199 40.064 16.3373 40.064 18.609V29.5638C40.064 29.9172 40.3669 30.2201 40.7203 30.2201H44.9103C45.2637 30.2201 45.5666 29.9172 45.5666 29.5638V18.609C45.6171 13.3083 41.3765 9.01728 36.0758 9.01728Z" fill="#000088"></path><path d="M12.9548 30.8764C6.89684 30.8764 2 25.9796 2 19.9721C2 13.9142 6.89684 9.01733 12.9548 9.01733C19.0127 9.01733 23.9096 13.9142 23.9096 19.9721C23.8591 25.9796 18.9623 30.8764 12.9548 30.8764ZM18.4069 19.9721C18.4069 16.9431 15.9333 14.52 12.9548 14.52C9.92582 14.52 7.50264 16.9936 7.50264 19.9721C7.50264 23.0011 9.9763 25.4243 12.9548 25.4243C15.9838 25.4243 18.4069 23.0011 18.4069 19.9721Z" fill="#000088"></path><path d="M83.0244 15.4788C83.2264 15.7817 83.6302 15.8827 83.9331 15.6808L85.7505 14.6206L87.5174 13.611C87.8708 13.409 87.9718 12.9547 87.7193 12.6013C85.8515 10.1781 83.1759 8.96655 79.5916 8.96655C77.1179 8.96655 75.0986 9.52186 73.3822 10.7335C71.7163 11.8946 70.9085 13.51 70.9085 15.5293C70.9085 17.4477 71.7667 18.9117 73.4832 20.0223C74.1394 20.4767 74.9976 20.8805 75.9568 21.1834C76.6131 21.3853 77.5218 21.6378 78.5819 21.8902C81.3585 22.496 82.7215 23.3037 82.7215 24.1619C82.7215 25.3735 81.6614 25.9288 79.5916 25.9288C77.5723 25.9288 76.1588 25.222 75.351 23.758C75.1491 23.4047 74.7452 23.3037 74.3918 23.5056L72.524 24.5658L70.6561 25.7269C70.3027 25.9288 70.2018 26.3327 70.4037 26.6861C72.1706 29.4626 75.2501 30.8761 79.5411 30.8761C82.1662 30.8761 84.2865 30.3208 86.0534 29.1597C87.8203 27.9986 88.6785 26.3327 88.6785 24.2124C88.729 22.2436 87.8708 20.6281 86.1039 19.5175C84.8923 18.7602 83.1759 18.104 81.0556 17.7001C78.279 17.0943 76.916 16.2866 76.916 15.4284C76.916 14.3177 77.7742 13.7119 79.5411 13.7119C81.0556 13.7624 82.3177 14.3682 83.0244 15.4788Z" fill="#000088"></path><path d="M62.3804 10.38V21.2843C62.3804 23.556 60.563 25.4239 58.2913 25.4239C56.0195 25.4239 54.1517 23.6065 54.1517 21.3348V10.38C54.1517 10.0266 53.8488 9.72371 53.4954 9.72371H49.4063C49.0529 9.72371 48.75 10.0266 48.75 10.38V21.2338C48.75 26.5345 53.0915 30.9265 58.3922 30.876C63.6425 30.8256 67.9335 26.585 67.9335 21.2843V10.38C67.9335 10.0266 67.6306 9.72371 67.2772 9.72371H63.0871C62.6833 9.67323 62.3804 10.0266 62.3804 10.38Z" fill="#000088"></path><path d="M104.578 13.2072C105.083 13.5101 105.74 13.4091 106.194 12.9548C108.062 10.9355 110.737 9.6734 113.716 9.6734C116.694 9.6734 119.37 10.9355 121.238 12.9548C121.642 13.4091 122.298 13.5101 122.853 13.2072L127.397 10.5821C128.053 10.1782 128.255 9.26954 127.75 8.66374C124.368 4.62511 119.319 2 113.665 2C108.011 2 102.963 4.62511 99.6816 8.71422C99.1768 9.32002 99.3787 10.2287 100.035 10.6326L104.578 13.2072Z" fill="#0068FF"></path><path d="M123.462 16.9427C123.764 18.0028 123.916 19.1134 123.916 20.2745C123.764 25.6257 119.423 30.0682 114.072 30.2702C108.216 30.4721 103.42 25.8277 103.42 20.0221C103.42 18.962 103.571 17.9523 103.874 16.9932C104.076 16.4378 103.824 15.7816 103.319 15.5291L98.7754 12.904C98.1191 12.5002 97.2104 12.8031 96.958 13.5098C96.0998 15.6806 95.6959 18.0533 95.7464 20.527C95.9988 30.0177 103.773 37.7416 113.264 37.994C123.361 38.2465 131.64 30.0682 131.64 20.0221C131.64 17.7504 131.185 15.5291 130.428 13.5098C130.125 12.8031 129.267 12.5002 128.611 12.904L124.067 15.5291C123.562 15.7311 123.31 16.3874 123.462 16.9427Z" fill="#0068FF"></path></svg>