<svg xmlns="http://www.w3.org/2000/svg" width="32" height="32" viewBox="0 0 32 32" fill="none"><g clip-path="url(#clip0_45822_15952)"><rect width="32" height="32" fill="black"></rect><path d="M9.26566 25.9665C7.95442 25.9665 6.88843 24.9184 6.88843 23.6295V8.37763C6.88843 7.08873 7.95442 6.04065 9.26566 6.04065C10.5769 6.04065 11.6429 7.08873 11.6429 8.37763V17.0437C11.6429 17.2034 11.7402 17.3484 11.8881 17.4098C11.9374 17.4307 11.9904 17.4405 12.0409 17.4405C12.1432 17.4405 12.2443 17.4012 12.3207 17.3263L12.8112 16.8434C12.8112 16.8434 12.821 16.8335 12.826 16.8286C13.6566 15.9206 14.8446 15.3997 16.0868 15.3997C17.1725 15.3997 18.2139 15.7941 19.0211 16.5092C19.0506 16.5362 19.0814 16.5645 19.1123 16.5927C19.2207 16.6947 19.3193 16.7844 19.4031 16.8594C20.2781 17.6334 20.8129 18.1114 21.6509 18.9371C22.516 19.791 23.3775 20.6978 24.404 21.7987C24.86 22.2878 25.1114 22.9156 25.1114 23.5693C25.1114 24.2156 24.8637 24.8152 24.4163 25.2563C23.9665 25.6986 23.3701 25.9419 22.7329 25.9419C22.0958 25.9419 21.4993 25.6986 21.0495 25.2563L18.7154 22.9574C18.6267 22.8702 18.3741 22.6318 17.944 22.2251L17.9008 22.1845C17.3894 21.7017 16.7178 21.435 16.0092 21.435C15.3005 21.435 14.6043 21.7103 14.0891 22.2103C13.6701 22.617 13.4126 22.8677 13.3251 22.9537L10.986 25.2575C10.8505 25.3902 10.7014 25.5069 10.5399 25.604C10.5375 25.604 10.5362 25.6065 10.5338 25.6077C10.1542 25.8436 9.71547 25.9689 9.26319 25.9689L9.26566 25.9665ZM20.1598 14.1636C19.5337 14.1636 18.9237 13.9449 18.4431 13.548C17.8971 13.0971 17.5619 12.4631 17.5016 11.7639C17.4399 11.0673 17.6581 10.389 18.1153 9.8533L20.3693 7.20791C20.8782 6.61077 21.6238 6.26796 22.4175 6.26796C23.0435 6.26796 23.6535 6.48667 24.1341 6.88354C24.6801 7.33447 25.0153 7.96848 25.0757 8.66638C25.1373 9.36305 24.9192 10.0413 24.4619 10.577L22.208 13.2224C21.699 13.8195 20.9534 14.1624 20.1598 14.1624V14.1636Z" fill="url(#paint0_linear_45822_15952)"></path></g><defs><linearGradient id="paint0_linear_45822_15952" x1="16.002" y1="6.04065" x2="16.002" y2="25.9689" gradientUnits="userSpaceOnUse"><stop stop-color="#F9DFBA"></stop><stop offset="0.5" stop-color="#DDA769"></stop><stop offset="1" stop-color="#AF8354"></stop></linearGradient><clipPath id="clip0_45822_15952"><rect width="32" height="32" rx="6" fill="white"></rect></clipPath></defs></svg>